<svg width="56" height="56" viewBox="0 0 56 56" fill="none" xmlns="http://www.w3.org/2000/svg">
<path d="M10.5 49L7 5.25H49L45.5 49L28 54.25L10.5 49Z" fill="#212529"/>
<path d="M45.5 8.75H28V51.625L42 47.25L45.5 8.75Z" fill="#E9ECEF"/>
<path d="M34.125 30.625H16.625L15.75 24.5L29.75 20.125H15.75L14.875 14.875H42L41.125 21L29.75 25.375H40.25L38.5 42L28 45.5L17.5 42L16.625 33.25H21.875L22.75 37.625L28 39.375L33.25 37.625L34.125 30.625Z" fill="#212529"/>
<path d="M28 39.375V30.625H16.625L15.75 24.5L29.5 20.125H15.75L14.875 14.875H28V20.125V25.375V39.375V45.5L17.5 42L16.625 33.25H21.875L22.75 37.625L28 39.375Z" fill="#E9ECEF"/>
</svg>
