<svg width="58" height="58" viewBox="0 0 58 58" fill="none" xmlns="http://www.w3.org/2000/svg">
<rect x="1" y="1" width="56" height="56" rx="4" stroke="#212529" stroke-width="2"/>
<g clip-path="url(#clip0_63_366)">
<g clip-path="url(#clip1_63_366)">
<path d="M39 29C39 23.4771 34.5229 19 29 19C23.4771 19 19 23.4771 19 29C19 33.9912 22.6568 38.1283 27.4375 38.8785V31.8906H24.8984V29H27.4375V26.7969C27.4375 24.2906 28.9305 22.9063 31.2146 22.9063C32.3084 22.9063 33.4531 23.1016 33.4531 23.1016V25.5625H32.1922C30.95 25.5625 30.5625 26.3334 30.5625 27.125V29H33.3359L32.8926 31.8906H30.5625V38.8785C35.3432 38.1283 39 33.9912 39 29Z" fill="#212529"/>
</g>
</g>
<defs>
<clipPath id="clip0_63_366">
<rect width="20" height="20" fill="white" transform="translate(19 19)"/>
</clipPath>
<clipPath id="clip1_63_366">
<rect width="20" height="20" fill="white" transform="translate(19 19)"/>
</clipPath>
</defs>
</svg>
