<svg width="56" height="56" viewBox="0 0 56 56" fill="none" xmlns="http://www.w3.org/2000/svg">
<rect x="1" y="1" width="54" height="54" rx="3" stroke="#212529" stroke-width="2"/>
<g clip-path="url(#clip0_19_350)">
<path d="M38 28C38 22.4771 33.5229 18 28 18C22.4771 18 18 22.4771 18 28C18 32.9912 21.6568 37.1283 26.4375 37.8785V30.8906H23.8984V28H26.4375V25.7969C26.4375 23.2906 27.9305 21.9063 30.2146 21.9063C31.3084 21.9063 32.4531 22.1016 32.4531 22.1016V24.5625H31.1922C29.95 24.5625 29.5625 25.3334 29.5625 26.125V28H32.3359L31.8926 30.8906H29.5625V37.8785C34.3432 37.1283 38 32.9912 38 28Z" fill="#212529"/>
</g>
<defs>
<clipPath id="clip0_19_350">
<rect width="20" height="20" fill="white" transform="translate(18 18)"/>
</clipPath>
</defs>
</svg>
