<svg width="30" height="38" viewBox="0 0 30 38" fill="none" xmlns="http://www.w3.org/2000/svg">
<path d="M18.2255 30.3904C14.9024 31.65 15.5322 36.49 18.5849 37.6653C26.1647 40.1752 25.5491 27.6677 18.2255 30.3904Z" fill="#212529"/>
<path d="M7.76996 25.8806C14 20.0002 18.0506 12.5329 16.585 4.73444C14.9207 -3.51545 1.36046 1.70347 0.194049 9.69724C0.101092 10.3638 0.129769 11.4283 1 11.5C6.98235 9.33332 8.19123 12.3198 7.14695 16.3441C5.88907 21.6881 0.722571 27.1206 3.46479 32.7687C5.2814 34.2684 2.87194 29.1973 7.76996 25.8806Z" fill="#212529"/>
<path d="M29.2102 30.6573C27.723 27.1944 25.0965 23.8878 21 23C16.5736 22.0408 10.6213 23.7337 7.8692 26.29C5.49122 28.248 4.89538 33.0438 9.0046 32.9806C12.4797 33.2725 16.7483 30.1516 20 29.5C22.99 28.829 27.5927 31.5936 29 34.4999C30.4719 34.873 29.5431 31.3619 29.2102 30.6573Z" fill="#212529"/>
</svg>
