<svg width="25" height="40" viewBox="0 0 25 40" fill="none" xmlns="http://www.w3.org/2000/svg">
<path d="M18.4323 35.9552C16.6385 36.6247 16.9785 39.1973 18.6263 39.822C22.7177 41.1561 22.3854 34.508 18.4323 35.9552Z" fill="#E9ECEF"/>
<path d="M7.76051 29.8159C14.6469 23.3161 19.1242 15.0621 17.5042 6.44203C15.6646 -2.67701 1.60645 -1.78833 0.317164 7.0476C0.214415 7.78433 0.246113 8.96104 1.20802 9.04028C7.82062 6.64534 8.22616 14.8265 7.07187 19.2748C5.68147 25.1818 -0.029341 31.1867 3.00178 37.4298C5.00977 39.0875 2.34647 33.4821 7.76051 29.8159Z" fill="#E9ECEF"/>
<path d="M24.1786 34.1939C21.3546 27.6501 12.0989 27.3085 7.26261 31.7792C5.09229 33.5577 4.54849 37.9136 8.29885 37.8562C11.4704 38.1213 13.7566 35.3361 16.7243 34.7442C19.4532 34.1348 22.7024 35.0443 23.9868 37.6841C25.3302 38.0229 24.4825 34.8339 24.1786 34.1939Z" fill="#E9ECEF"/>
</svg>
