<svg width="22" height="20" viewBox="0 0 22 20" fill="none" xmlns="http://www.w3.org/2000/svg">
<path fill-rule="evenodd" clip-rule="evenodd" d="M11 0C5.31263 0 0.706116 4.58819 0.706116 10.2529C0.706116 14.7899 3.65274 18.6219 7.74456 19.9804C8.25925 20.0701 8.45226 19.7625 8.45226 19.4934C8.45226 19.2499 8.43939 18.4425 8.43939 17.5838C5.85306 18.058 5.18395 16.9558 4.97808 16.3791C4.86227 16.0843 4.36044 15.1743 3.92295 14.9308C3.56267 14.7386 3.04797 14.2644 3.91009 14.2516C4.72073 14.2388 5.29976 14.9949 5.49277 15.3025C6.41922 16.8533 7.89896 16.4175 8.49086 16.1484C8.58093 15.4819 8.85115 15.0334 9.1471 14.777C6.85671 14.5207 4.46338 13.6364 4.46338 9.71466C4.46338 8.59965 4.86227 7.67689 5.5185 6.95918C5.41557 6.70286 5.05528 5.65193 5.62144 4.24215C5.62144 4.24215 6.48356 3.97301 8.45226 5.29308C9.27577 5.06239 10.1508 4.94704 11.0257 4.94704C11.9007 4.94704 12.7757 5.06239 13.5992 5.29308C15.5679 3.9602 16.43 4.24215 16.43 4.24215C16.9962 5.65193 16.6359 6.70286 16.533 6.95918C17.1892 7.67689 17.5881 8.58684 17.5881 9.71466C17.5881 13.6492 15.1819 14.5207 12.8915 14.777C13.2646 15.0975 13.5863 15.7126 13.5863 16.6738C13.5863 18.0452 13.5735 19.1474 13.5735 19.4934C13.5735 19.7625 13.7665 20.0829 14.2812 19.9804C18.3473 18.6219 21.2939 14.777 21.2939 10.2529C21.2939 4.58819 16.6874 0 11 0Z" fill="#212529"/>
</svg>
