<svg width="28" height="20" viewBox="0 0 28 20" fill="none" xmlns="http://www.w3.org/2000/svg">
<path d="M2.48777 20H6.72913V9.69958L0.670044 5.15527V18.1823C0.670044 19.1881 1.48499 20 2.48777 20Z" fill="#212529"/>
<path d="M21.2709 20H25.5123C26.5181 20 27.33 19.1851 27.33 18.1823V5.15527L21.2709 9.69958" fill="#212529"/>
<path d="M21.2709 1.82288V9.69969L27.33 5.15538V2.73174C27.33 0.483824 24.764 -0.797672 22.9675 0.550474" fill="#212529"/>
<path d="M6.72913 9.69956V1.82275L14 7.27593L21.2709 1.82275V9.69956L14 15.1527" fill="#212529"/>
<path d="M0.670044 2.73174V5.15538L6.72913 9.69969V1.82288L5.03258 0.550474C3.23304 -0.797672 0.670044 0.483824 0.670044 2.73174" fill="#212529"/>
</svg>
