<svg width="23" height="38" viewBox="0 0 23 38" fill="none" xmlns="http://www.w3.org/2000/svg">
<path d="M16.4246 33.4342C14.8018 34.0399 15.1094 36.3673 16.6002 36.9324C20.3016 38.1394 20.001 32.1249 16.4246 33.4342Z" fill="#212529"/>
<path d="M6.76999 27.8804C13 22 17.0506 14.5327 15.585 6.73423C13.9207 -1.51566 1.20249 -0.711689 0.0360806 7.28208C-0.056876 7.94859 -0.0281992 9.01314 0.842032 9.08484C6.82438 6.91816 7.19126 14.3196 6.14698 18.3439C4.8891 23.6879 -0.277399 29.1204 2.46482 34.7685C4.28143 36.2682 1.87197 31.1971 6.76999 27.8804Z" fill="#212529"/>
<path d="M21.6233 31.8409C19.0685 25.9209 10.695 25.6118 6.31958 29.6564C4.35612 31.2654 3.86415 35.2061 7.25706 35.1542C10.1263 35.394 12.1946 32.8743 14.8795 32.3388C17.3483 31.7875 20.2878 32.6103 21.4497 34.9985C22.6651 35.305 21.8982 32.4199 21.6233 31.8409Z" fill="#212529"/>
</svg>
