<svg width="56" height="56" viewBox="0 0 56 56" fill="none" xmlns="http://www.w3.org/2000/svg">
<path d="M0 0V56H56V0H0ZM29.2275 47.9049C28.4026 49.5815 26.8262 50.6838 25.001 51.2152C22.1953 51.8594 19.513 51.4926 17.5161 50.2937C16.1794 49.4742 15.1362 48.2127 14.4294 46.7597C15.8502 45.8919 17.2674 45.0187 18.6881 44.1508C18.7257 44.1669 18.8367 44.3691 18.987 44.6304C19.5291 45.5412 19.998 46.1853 20.9195 46.6362C21.8249 46.944 23.8093 47.1426 24.5769 45.5501C25.0458 44.7413 24.8955 42.0859 24.8955 39.2068C24.8955 34.6815 24.9169 30.2313 24.9169 25.6506H30.1544C30.1544 30.4604 30.1812 35.2827 30.1544 40.0854C30.1651 43.0289 30.421 45.7058 29.2275 47.9049ZM50.9576 46.4251C49.1378 52.6539 38.9849 52.8561 34.9302 48.7405C34.0731 47.7725 33.5363 47.2661 33.0245 46.1478C35.1807 44.9077 35.1807 44.9077 37.2779 43.6945C38.4177 45.4463 39.4716 46.409 41.3666 46.8027C43.9379 47.1158 46.5253 46.2336 45.9456 43.5031C45.3497 41.2717 40.6812 40.7296 37.5033 38.3443C34.2771 36.1774 33.522 30.9131 36.172 27.9052C37.056 26.7922 38.5626 25.9619 40.1426 25.5629L41.7924 25.3499C44.9596 25.2855 46.9404 26.1212 48.3934 27.7459C48.7978 28.1557 49.127 28.5976 49.7462 29.5567C48.0588 30.6322 48.0642 30.6214 45.6467 32.1871C45.1296 31.0741 44.2743 30.3763 43.3689 30.0739C41.9642 29.648 40.191 30.1115 39.8241 31.5966C39.6971 32.0547 39.7239 32.4806 39.9261 33.2357C40.4951 34.5348 42.4062 35.0984 44.1204 35.8857C49.0555 37.888 50.7214 40.0317 51.1311 42.5869C51.5248 44.786 51.0345 46.2122 50.9611 46.4251H50.9576Z" fill="#212529"/>
</svg>
