<svg width="20" height="20" viewBox="0 0 20 20" fill="none" xmlns="http://www.w3.org/2000/svg">
<path d="M0.325307 8.64474C0.325307 7.52185 1.23559 6.61157 2.35847 6.61157V6.61157C3.48136 6.61157 4.39164 7.52185 4.39164 8.64474V17.9668C4.39164 19.0897 3.48136 20 2.35847 20V20C1.23559 20 0.325307 19.0897 0.325307 17.9668V8.64474ZM0 2.39669C0 1.73554 0.225907 1.17539 0.677722 0.716252C1.14761 0.238751 1.70786 0 2.35847 0C3.00909 0 3.5603 0.238751 4.01212 0.716252C4.482 1.17539 4.71695 1.73554 4.71695 2.39669C4.71695 3.05785 4.482 3.62718 4.01212 4.10468C3.5603 4.56382 3.00909 4.79339 2.35847 4.79339C1.70786 4.79339 1.14761 4.56382 0.677722 4.10468C0.225907 3.62718 0 3.05785 0 2.39669Z" fill="#212529"/>
<path d="M7.31304 8.56341C7.31304 7.48544 8.18691 6.61157 9.26488 6.61157H10.3076C10.8097 6.61157 11.2167 7.01858 11.2167 7.52066V8.39634C11.2167 8.41479 11.2317 8.42975 11.2501 8.42975V8.42975C11.2629 8.42975 11.2745 8.42252 11.2802 8.41114C11.4062 8.16023 11.5838 7.90931 11.8131 7.6584C12.0481 7.40129 12.3282 7.17172 12.6535 6.9697C12.9788 6.76768 13.3493 6.60239 13.765 6.47383C14.1806 6.34527 14.6324 6.28099 15.1204 6.28099C16.1505 6.28099 16.9819 6.44628 17.6144 6.77686C18.247 7.08907 18.7349 7.52984 19.0783 8.09917C19.4397 8.6685 19.6837 9.33884 19.8102 10.1102C19.9367 10.8815 20 11.7172 20 12.6171V17.9668C20 19.0897 19.0897 20 17.9668 20V20C16.8439 20 15.9337 19.0897 15.9337 17.9668V13.4435C15.9337 13.0579 15.9156 12.663 15.8795 12.259C15.8614 11.8365 15.7801 11.4509 15.6355 11.1019C15.509 10.753 15.3011 10.4683 15.012 10.2479C14.7409 10.0275 14.3433 9.91735 13.8192 9.91735C13.2951 9.91735 12.8704 10.0184 12.5451 10.2204C12.2198 10.404 11.9667 10.6612 11.786 10.9917C11.6234 11.3039 11.5149 11.6621 11.4607 12.0661C11.4065 12.4702 11.3794 12.8926 11.3794 13.3333V17.9668C11.3794 19.0897 10.4691 20 9.34621 20V20C8.22332 20 7.31304 19.0897 7.31304 17.9668V8.56341Z" fill="#212529"/>
</svg>
