<svg width="630" height="630" viewBox="0 0 630 630" fill="none" xmlns="http://www.w3.org/2000/svg">
<path d="M342.896 183.758C344.03 178.076 346.424 173.59 349.461 170.654C353.896 166.37 359.767 165.236 365.173 168.197C368.348 169.936 371.284 173.162 373.64 178.051C371.574 180.268 369.268 181.138 366.786 181.251C361.342 171.184 352.989 174.208 350.481 184.338C347.76 185.044 345.24 184.64 342.896 183.746V183.758Z" fill="#F5F7FF"/>
<path fill-rule="evenodd" clip-rule="evenodd" d="M328.809 173.426C324.487 167.744 303.924 161.482 300.358 164.279C299.388 183.834 295.507 209.614 291.45 219.618C302.425 223.121 324.198 221.861 333.711 219.379C328.645 209.903 327.826 180.671 328.809 173.414V173.426Z" fill="#E9ECEF" stroke="#020202" stroke-width="2.52" stroke-miterlimit="10"/>
<path fill-rule="evenodd" clip-rule="evenodd" d="M349.788 136.546C355.206 135.047 360.902 138.575 362.514 144.409C364.127 150.255 361.053 156.202 355.635 157.689C350.217 159.188 344.522 155.66 342.909 149.827C341.296 143.993 344.37 138.033 349.788 136.546Z" fill="#E9ECEF" stroke="#020202" stroke-width="2.52" stroke-miterlimit="10"/>
<path fill-rule="evenodd" clip-rule="evenodd" d="M300.346 164.279C279.291 175.342 271.945 133.988 298.582 144.963C305.26 134.618 323 137 318.603 113.929C323.177 113.614 327.65 113.69 332.01 114.269C342.052 115.592 350.506 122.333 354.236 131.758C364.089 156.656 352.787 182.158 336.747 187.551C325.533 191.331 313.147 181.755 300.333 164.291L300.346 164.279Z" fill="#E9ECEF" stroke="#020202" stroke-width="2.52" stroke-miterlimit="10"/>
<path d="M287.406 152.8C286.738 153.191 285.894 152.977 285.491 152.309C285.1 151.641 285.314 150.797 285.982 150.394C286.234 150.242 286.499 150.104 286.763 149.978C288.628 149.071 290.669 148.768 292.622 149.31C294.563 149.839 296.365 151.187 297.763 153.544C297.94 153.833 298.103 154.148 298.267 154.476C298.494 154.892 298.519 155.408 298.267 155.849C297.889 156.517 297.032 156.744 296.365 156.366C295.533 155.887 294.752 155.572 294.021 155.383C293.29 155.194 292.597 155.156 291.98 155.219C291.211 155.308 290.531 154.753 290.443 153.985C290.354 153.216 290.909 152.536 291.677 152.447C292.093 152.397 292.509 152.384 292.95 152.41C292.61 152.221 292.257 152.069 291.892 151.969C290.632 151.616 289.271 151.843 287.986 152.46C287.797 152.548 287.608 152.649 287.406 152.775V152.8Z" fill="#212529"/>
<path d="M299.174 165.022C298.758 164.367 298.96 163.51 299.615 163.107C300.27 162.691 301.127 162.893 301.53 163.548C303.698 166.988 306.318 170.528 309.481 173.905C312.644 177.269 316.335 180.47 320.67 183.217C321.312 183.632 321.514 184.489 321.098 185.132C320.682 185.774 319.826 185.976 319.183 185.56C314.634 182.662 310.766 179.323 307.465 175.808C304.164 172.292 301.442 168.613 299.187 165.035L299.174 165.022Z" fill="#212529"/>
<path d="M315 79.5641C315 79.5641 304.281 76.4361 301.952 76.5609C294.869 76.9404 287.851 77.2834 280.676 84.8917C273.5 92.5 271.852 103.072 269.189 113C267.113 120.737 261.417 124.223 254.5 127.5C246.351 131.36 240.602 139.545 237.885 148.603C236.431 153.45 235.387 159.091 237.444 163.89C238.682 166.779 241.092 169.321 241.092 172.56C241.092 174.407 241.209 176.085 240.311 177.752C239.422 179.404 238.113 180.85 236.782 182.181C233.793 185.169 230.789 187.293 228.587 191.037C226.583 194.445 234.118 193.094 231.352 200.047C228.587 207 249.5 207.5 255.921 202.575C262.341 197.65 260.585 199.972 263.386 199.894C265.449 199.837 278.026 202.671 280 203C292.811 206.784 294.87 202.87 295.5 203.5M330 202.575C333.5 199 344.406 204.682 346.932 205.086C349.141 205.44 354.471 207.145 356.383 205.527C358.595 203.655 360.385 200.641 363.085 199.453C365.148 198.545 367.232 197.98 369.498 198.52C371.677 199.039 373.477 200.381 375.657 200.946C377.072 201.313 379.437 201.421 380.9 201.421C383.761 201.421 395 205.527 389.655 197.79C384.31 190.053 391.068 189.266 391.284 185.133C391.5 181 389.664 180.617 388.671 178.414C387.244 175.248 385.567 172.32 384.327 169.048C382.963 165.448 382.254 160.379 383.106 156.594C383.778 153.606 385.803 151.03 387.313 148.416C390.693 142.57 378 133.5 372 127.5C366 121.5 363.983 102.149 362.983 95.6488C360.5 87.5 363.085 84.8917 350.5 82C343.652 80.4265 339.881 75.1693 333 75.967C330.58 76.2476 323.18 76.0497 320.803 76.5779C318.577 77.0724 317.423 77.7485 315.611 79.2587" stroke="#212529" stroke-width="3" stroke-linecap="round"/>
<path d="M309.119 108.789C309.302 109.793 310.393 110.909 310.972 111.692C311.65 112.61 312.417 113.419 312.903 114.455C313.505 115.74 313.936 116.701 314.25 118.06C314.891 120.837 313.789 122.887 312.863 125.469C312.392 126.784 311.569 128.058 310.942 129.312C310.594 130.007 309.406 127.407 309.119 128.084C308.507 129.531 302.446 127.429 304 131.214C305.851 134.106 303.308 135.055 302.127 135.533C300.992 135.991 299.8 136.634 298.779 137.315C297.978 137.849 297.255 138.896 296.461 139.316C295.687 139.726 294.265 139.11 293.49 138.88C291.496 138.29 289.228 138.563 287.17 138.563C285.891 138.563 284.53 138.745 283.367 139.316C280.895 140.529 278.435 141.919 276.493 143.912C274.534 145.922 274.532 148.043 274.532 150.687C274.532 153.384 275.06 155.778 275.641 158.393C276.142 160.647 277.061 163.059 277.998 165.168C278.794 166.958 280.535 168.367 282.337 169.011C283.603 169.463 289.733 174.936 291.073 174.936C293.288 176.986 287.74 174.696 291.726 171.665C292.63 171.398 289.488 177.995 292.222 172.745C289.904 177.995 286.728 178.975 289.448 176.043C282.953 187.81 300.5 166 294 171C293.607 172.18 293.884 172.738 293.569 173.944C293.028 176.009 292.65 178.004 292.321 180.104C292.166 181.094 292.02 182.107 291.726 183.056C290.947 185.578 290.934 188.309 290.934 190.94C290.934 191.2 290.91 192.551 291.053 192.307C292.274 190.226 292.964 187.931 293.787 185.691C293.954 185.235 294.046 183.856 294.232 184.304C294.805 185.678 292.699 187.826 292.5 189.237C292.329 190.459 292.656 192.479 292.222 193.654C291.669 195.149 292.192 196.001 291.726 197.5C291.512 198.192 292.288 198.468 291.39 198.468C289.74 198.468 287.715 198.793 286.12 198.428C285.113 198.198 284.027 198.477 283.05 198.151C281.738 197.714 280.378 197.407 279.068 196.962C275.376 195.709 271.727 194.189 267.757 194.189C263.542 194.189 258.901 194.747 254.9 196.15C253.419 196.67 252.124 197.736 250.602 198.25C248.693 198.894 246.807 199.465 244.797 199.676C242.835 199.883 240.829 199.611 238.914 199.538C238.011 199.503 236.713 199.575 236.735 198.468C236.755 197.411 239.227 194.007 237.804 193.258C237.158 192.918 236.435 192.71 235.804 192.327C235.687 192.256 234.972 192.021 234.972 191.941C234.972 191.26 236.394 190.669 236.854 190.445C238.949 189.426 240.466 187.941 241.945 186.166C243.011 184.887 244.431 183.644 245.114 182.105C246.178 179.711 246.362 177.135 246.362 174.538C246.362 172.896 246.032 171.669 245.411 170.14C244.812 168.666 244.609 167.055 244.084 165.564C242.953 162.351 242.44 158.536 242.44 155.144C242.44 153.385 242.23 151.481 242.618 149.756C243.074 147.728 243.968 145.823 244.758 143.912C246.476 139.753 250.019 137.406 253.632 134.998C255.497 133.754 257.469 132.59 259.239 131.214C261.007 129.839 262.478 128.103 264.151 126.618C265.49 125.431 266.804 124.274 267.895 122.854C268.803 121.675 269.544 120.387 270.352 119.13C271.292 117.667 271.765 115.904 272.709 114.455C273.645 113.019 274.357 111.374 275.066 109.82C276.197 107.344 277.143 104.81 278.276 102.332C279.184 100.343 279.959 98.2428 280.95 96.3094C283.442 91.4467 286.742 87.686 291.786 85.5329C294.51 84.3703 297.633 83.8813 300.502 83.1557C302.262 82.7105 304.046 82.4554 305.851 82.2643C306.451 82.2008 307.377 82.0541 307.911 82.403C308.782 82.9724 309.606 83.5504 310.546 84.0076C311.348 84.3979 312.138 84.7659 313.042 84.7207C314.403 84.6526 315.805 83.755 317.142 83.4727C321.93 82.4621 326.481 81.9853 331.366 82.0464C335.037 82.0923 339.068 83.4374 342.419 84.8594C345.047 85.974 352.164 86.4824 353.939 89C356.982 93.3161 356.641 97.399 358.545 102.332C360.226 106.689 359.994 111.088 361.5 115.5C362.897 119.591 363.545 125.683 366 129.312C369.28 134.161 374.207 137.999 377.681 142.723C378.829 144.285 380.184 145.608 380.969 147.418C382.06 149.934 379.017 147.324 379 150C378.969 154.896 376.871 166.16 378.5 171C379.724 174.637 383.164 177.43 383.5 181.382C383.612 182.703 386.632 183.298 386.139 184.502C385.686 185.611 384.521 186.286 384.5 187.5C384.477 188.799 381.583 187.249 382 188.5C382.154 188.963 380.458 190.933 380.613 191.396C380.896 192.245 382.483 193.646 382.5 194.556C382.51 195.088 382.384 192.378 382.5 192.901C382.607 193.385 389 201 381.861 196.309C380.604 195.186 379.323 190.237 377.621 189.724C376.09 189.262 379.578 196.289 378 196.309C377.116 196.32 374.354 192.996 373.659 193.654C372.967 194.31 370.544 192.074 369.559 192.307C365.301 193.315 362.865 194.906 358.584 195.477C356.777 195.718 355.33 197.667 354.048 198.785C352.382 200.237 350.666 200.251 348.541 200.251C346.022 200.251 344.645 195.925 342.162 195.477C339.72 195.036 336.968 197.874 334.644 196.962C333.968 196.697 338.056 194.835 338 194C337.934 193.013 360.16 191.554 356.425 192.069M356.425 192.069C364.346 191.717 333.014 193.003 334.159 192.901C336.899 192.658 339.855 192.38 342.439 191.396C344.864 190.473 346.783 189.496 348.937 188.068C350.523 187.016 351.873 185.149 352.701 183.452C353.252 182.322 354.165 181.406 354.84 180.352C355.463 179.38 355.805 178.158 356.187 177.074C356.554 176.032 357.113 175.08 357.435 174.023C357.76 172.955 358.05 171.877 358.505 170.853C359.33 168.997 361.306 168.024 361.5 166C361.65 164.432 361.094 163.523 361.5 162C361.954 160.298 362.064 158.918 363.616 158.314C365.914 157.419 367.609 154.841 368.311 152.529C368.898 150.596 368.866 148.546 368.846 146.547C368.821 144.085 368.035 141.956 366.924 139.811C366.482 138.958 366.138 137.995 365.458 137.315C364.101 135.959 361.888 135.627 360.506 134.245C358.875 132.614 358.63 129.388 357.792 127.331C356.586 124.371 355.67 121.257 354.226 118.397C352.544 115.066 349.491 111.197 345.747 110.037C341.071 108.589 335.759 109.146 330.93 109.146C326.433 109.146 312.003 109.5 316.5 109.5C321.098 109.5 327.468 107.659 332 108.5C334.631 108.988 337.506 109.272 340 110.216C341.942 110.951 343.631 112.874 345.391 114C346.615 114.783 349.18 115.29 350.185 116.357C350.776 116.985 351.334 117.443 352 118C353.055 118.882 353.249 119.522 354.226 120.5C356.533 122.807 357.52 126.836 359.872 129.154C363.611 132.839 368.072 135.786 371.659 139.633C376.065 144.359 376.616 150.133 377.681 156.5C378.154 159.328 373.921 163.138 373.921 166C373.921 167.798 374.892 170.236 374.5 172C373.92 174.61 378.43 175.754 377.621 178.302C376.939 180.453 376.242 182.629 375.502 184.76C375.085 185.961 374.509 187.226 373.758 188.266C371.748 191.053 367.579 191.144 364.547 191.554C362.491 191.833 360.254 191.975 358.346 192.852C357.638 193.178 356.394 193.418 355.87 194.011C354.939 195.067 355.339 193.36 355.296 192.584C355.256 191.871 355.171 191.599 355.593 190.831C357.538 187.295 360.166 184.408 362.804 181.392C365.925 177.824 369.498 174.112 371.124 169.566C372.834 164.782 373.182 159.412 373.719 154.391C373.769 153.923 373.755 152.525 373.857 152.985C374.178 154.425 374.206 156.001 374.254 157.462C374.442 163.288 373.889 168.949 372.035 174.498C371.252 176.84 370.282 179.284 368.955 181.382C368.709 181.77 368.424 182.109 368.132 182.462C368.097 182.504 367.48 183.287 367.459 183.215C367.269 182.56 367.419 181.439 367.419 180.818C367.419 177.766 367.445 174.716 367.518 171.665C367.581 169.063 367.776 161.257 367.776 163.86C367.776 172.243 365.032 181.09 360.367 188.048C359.307 189.629 357.981 190.977 356.425 192.069ZM356.425 192.069C355.468 192.741 354.498 193.959 353.335 194.229C352.612 194.396 351.953 194.503 351.215 194.556C350.608 194.599 350.196 194.794 351.255 194.268C355.298 192.259 359.701 191.051 363.834 189.237C365.789 188.378 368.038 187.337 368.766 185.136C369.504 182.906 369.226 180.092 369.192 177.787C369.151 174.97 368.698 172.211 368.529 169.407C368.404 167.337 367.995 164.891 368.39 162.83C369.443 157.33 369.559 151.844 369.559 146.25C369.559 141.838 369.682 137.53 368.311 133.294C368.144 132.78 367.384 131.513 367.984 132.601C368.505 133.545 369.335 134.459 370.212 135.077C371.909 136.27 373.599 136.977 375.66 137.276C377.218 137.502 377.463 139.18 378.5 140.5C379.232 141.432 380.722 141.184 381.326 142.199C381.578 142.622 382.039 143.039 382.039 143.555C382.039 145.237 378.483 142.485 378.235 142.307C374.4 139.566 370.743 136.5 367.033 133.591C364.222 131.387 361.565 129.123 359.04 126.598C355.226 122.784 353.566 117.322 351.829 112.335C350.803 109.39 349.74 106.433 348.343 103.639C347.381 101.717 346.337 99.8456 345.431 97.8942C344.608 96.1237 343.822 94.2923 342.697 92.6842C342.487 92.385 342.827 93.4048 342.935 93.7539C343.563 95.7976 344.375 97.7155 345.391 99.5978C346.072 100.86 346.79 102.113 347.53 103.342C347.543 103.363 347.865 103.938 348.026 104.055C348.101 104.109 348.041 103.864 348.006 103.778C346.776 100.744 343.952 98.1596 341.053 96.7848C339.718 96.1521 338.212 95.6066 336.754 95.3387C335.544 95.1164 335.214 95.6193 334.644 96.5966C333.518 98.5268 332.096 101.479 329.979 102.51C328.206 103.373 328.513 100.07 330.078 100.133C330.434 100.147 330.459 100.422 330.217 100.658C328.869 101.971 326.345 102.26 324.611 102.51C320.439 103.111 307.837 103.934 312.051 103.976C326.011 104.113 338.54 100.133 352.5 100.133C353.672 100.133 358.627 103.976 357.455 103.976C355.032 103.976 352.608 103.976 350.185 103.976C337.414 103.976 324.644 103.976 311.873 103.976C311.621 103.976 311.229 104.034 311.596 103.857C312.699 103.323 313.872 102.944 315.023 102.53C315.449 102.376 316.646 102.168 316.251 101.945C315.861 101.726 315.361 101.853 314.914 101.846C313.835 101.83 310.861 101.836 310.169 101.836C305.032 101.836 299.895 101.848 294.757 101.836C292.874 101.832 282.502 106.259 284.199 105.442C286.463 104.351 294.155 99.5778 296.54 98.9639C304.147 97.0056 311.888 95.6835 319.599 94.2195C321.462 93.8657 323.326 93.508 325.165 93.0408C326.186 92.7815 324.541 92.9222 324.492 92.9219C320.469 92.9026 316.45 92.7436 312.428 92.7436C310.925 92.7436 312.543 92.7057 312.586 92.704C315.761 92.5777 318.938 92.5705 322.115 92.5653C325.462 92.5599 335.506 92.5653 332.158 92.5653C325.781 92.5653 319.402 92.2289 313.022 92.2088C311.893 92.2052 308.505 92.2088 309.634 92.2088C311.196 92.2088 312.758 92.2088 314.319 92.2088C323.603 92.2088 332.88 91.8893 342.162 91.8522C344.258 91.8438 346.355 91.8522 348.452 91.8522C348.695 91.8522 349.326 91.7889 348.64 91.7135C340.325 90.801 331.777 90.9608 323.422 90.9608C315.159 90.9608 306.917 91.2331 298.66 91.3173C297.698 91.3271 296.708 91.7344 295.817 92.0503C294.634 92.4695 293.24 92.8986 292.281 93.7539C291.37 94.5663 290.827 95.6236 290.053 96.5273C290.004 96.5833 289.688 94.322 289.686 94.0907C289.665 91.4921 289.104 89.1454 291.469 87.3554C292.36 86.6809 293.146 86.2758 294.143 85.7904C294.368 85.6812 295.188 85.3477 294.52 85.2556C293.136 85.0647 291.733 85.0773 290.34 85.0773C289.729 85.0773 289.084 85.2319 290.013 84.8693C291.346 84.349 292.697 83.8688 294.024 83.334C295.085 82.9068 297.285 82.7964 298.303 83.1557C298.954 83.3855 299.346 85.079 299.522 85.6121C300.442 88.4129 301.06 91.2984 302.067 94.0709C303.704 98.5784 305.799 102.902 307.356 107.442C308.401 110.488 308.585 113.173 308.585 116.357C308.585 119.189 308.439 121.871 307.119 124.459C305.707 127.225 303.05 129.95 300.205 131.214C297.8 132.283 295.324 133.175 292.925 134.275C290.635 135.324 288.401 136.432 285.962 137.098C285.916 137.11 285.25 137.405 285.318 137.098C285.576 135.937 286.605 134.682 287.259 133.75C290.699 128.846 295.069 124.419 297.947 119.15C299.475 116.352 300.361 113.416 301.255 110.384C301.607 109.188 302.264 107.63 302.166 106.353C302.129 105.875 301.862 107.262 301.72 107.72C300.904 110.361 300.05 113.007 298.898 115.525C296.423 120.928 292.84 125.85 289.448 130.699C286.921 134.312 284.231 137.976 280.524 140.475C280.294 140.63 277.176 142.606 276.889 142.09C276.654 141.667 277.083 141.141 277.236 140.683C278.27 137.579 279.659 134.607 281.128 131.689C283.923 126.141 287.645 121.032 290.181 115.366C291.436 112.563 292.36 109.673 292.36 106.591C292.36 106.207 292.559 105.176 292.281 105.442C291.508 106.181 290.985 108.236 290.518 109.146C286.094 117.771 281.395 126.443 275.423 134.106C275.188 134.407 273.848 136.12 273.422 135.998C273.385 135.988 277.282 127.87 277.404 127.609C279.484 123.163 281.687 118.548 283.03 113.811C283.255 113.017 283.493 112.172 283.585 111.345C283.633 110.914 283.011 112.001 282.792 112.375C277.943 120.667 273.494 129.186 268.846 137.593C267.544 139.948 266.267 142.552 264.221 144.358C262.305 146.048 260.111 147.39 258.228 149.122C254.362 152.677 251.559 158.508 250.582 163.603C250.126 165.977 250.258 168.477 250.552 170.863C250.843 173.22 250.85 175.594 250.958 177.965C251.14 181.975 251.199 185.921 249.076 189.474C248.115 191.084 246.33 191.848 244.797 192.901C244.677 192.984 244.253 193.412 244.312 192.971C244.621 190.65 245.666 188.256 246.372 186.047C248.677 178.837 250.047 171.864 250.384 164.276C250.556 160.394 250.523 156.442 252.345 152.906C254.102 149.495 256.327 146.42 259.298 143.972C262.155 141.617 265.681 139.901 267.143 136.285C267.194 136.159 267.52 135.236 267.321 135.572C265.645 138.401 263.257 140.94 260.764 143.06C258.387 145.082 255.928 146.97 253.306 148.656C252.647 149.08 252.033 149.575 251.374 149.994C250.553 150.515 250.653 149.603 250.641 149.003C250.596 146.681 250.635 144.518 251.998 142.535C253.119 140.905 254.69 139.915 256.584 139.395C256.86 139.32 259.259 138.63 259.466 138.999C259.738 139.483 259.612 140.576 259.575 141.02C259.237 145.142 258.254 149.219 257.436 153.262C256.087 159.933 255.365 166.451 255.187 173.25C255.091 176.961 255.098 180.671 255.098 184.383C255.098 186.508 255.002 188.713 255.623 190.772C255.99 191.987 256.881 191.318 257.634 190.683C259.174 189.384 260.453 187.815 261.626 186.186C265.477 180.836 268.581 174.916 270.837 168.724C273.466 161.508 274.709 153.34 273.402 145.695C273.253 144.822 272.967 143.853 272.531 145.16C270.762 150.466 269.56 156.013 268.45 161.483C267.895 164.219 267.343 166.978 267.024 169.754C266.901 170.819 266.911 170.974 266.875 171.893C266.856 172.384 266.865 172.061 266.865 171.477C266.865 164.362 266.865 157.247 266.865 150.132C266.865 149.986 266.944 148.186 266.816 149.905C266.421 155.196 265.967 160.483 265.548 165.772C265.207 170.072 264.878 174.37 264.666 178.678C264.541 181.226 264.546 183.8 264.132 186.325C263.416 190.681 265.559 177.612 266.301 173.26C266.846 170.065 267.349 166.861 267.737 163.643C267.822 162.938 267.836 162.226 267.935 161.523C267.966 161.301 268.05 161.957 268.093 162.177C269.082 167.167 270.138 172.207 271.56 177.093C272.209 179.323 272.907 181.554 273.719 183.73C273.95 184.346 274.494 186.657 275.245 185.037C277.021 181.206 278.934 168.57 278.305 172.745C277.556 177.723 276.013 182.702 275.859 187.751C275.851 188.014 275.999 188.724 276.126 188.494C277.126 186.694 277.679 184.447 278.127 182.462C278.574 180.482 278.822 178.473 279.048 176.459C279.168 175.395 279.103 174.807 279.464 176.043C280.37 179.145 281.649 182.14 282.495 185.255C282.648 185.818 282.716 186.359 282.733 186.939C282.746 187.401 282.731 186.014 282.733 185.552C282.74 183.61 282.763 181.668 282.842 179.728C282.912 178 282.869 176.04 283.426 174.369C283.631 173.754 283.674 174.481 283.704 174.696C283.954 176.549 284.128 178.418 284.258 180.283C284.303 180.922 284.337 181.563 284.337 182.204C284.337 182.875 284.28 180.864 284.248 180.194C284.19 178.955 284.163 177.72 284.199 176.479C284.203 176.349 284.465 172.99 284.219 175.489C283.72 180.548 282.6 185.496 281.98 190.534C281.773 192.215 282.011 192.295 280.257 192.367C277.523 192.478 274.857 192.199 272.135 192.069C271.274 192.028 269.017 192.398 270.867 191.495C274.183 189.876 277.725 188.423 280.772 186.325C281.164 186.054 282.23 185.204 281.762 185.295C280.427 185.552 279.17 186.16 277.82 186.404C276.379 186.664 274.91 186.673 273.452 186.691C273.014 186.697 270.738 187.025 270.273 186.602C269.841 186.21 269.8 185.077 269.757 184.601C269.537 182.125 269.835 179.689 270.768 177.371C272.324 173.503 274.496 171.032 278.711 170.695C280.184 170.577 281.597 170.701 283.05 170.338C284.208 170.049 285.467 172.772 285.5 171.893C285.566 170.159 281.489 165.264 280.257 163.86C279.396 162.881 278.158 161.405 277.236 160.453C274.398 157.526 275.667 151.382 277.028 147.3" stroke="#212529" stroke-width="11" stroke-linecap="round"/>
<path fill-rule="evenodd" clip-rule="evenodd" d="M321.313 508.271L292.862 507.641L290.871 587.349C315.97 597.227 465.142 600.692 478.75 573.275C372.305 547.558 383.38 461.639 321.313 508.271Z" fill="#E9ECEF" stroke="#212529" stroke-width="2.52" stroke-miterlimit="10"/>
<path fill-rule="evenodd" clip-rule="evenodd" d="M438.581 590.008C459.22 586.656 474.781 581.288 478.75 573.275C462.004 569.23 448.157 563.686 436.489 557.411C435.229 561.645 434.549 566.181 434.549 570.893C434.549 577.76 435.998 584.249 438.581 590.008Z" fill="#E9ECEF" stroke="#181C20" stroke-width="2.52" stroke-miterlimit="10"/>
<path fill-rule="evenodd" clip-rule="evenodd" d="M344.673 586.013L342.682 506.306C351.061 501.593 454.117 466.326 456.889 459.724C448.989 443.482 446.872 422.024 394.09 408.429C657.758 314.156 645.208 569.243 344.673 586.001V586.013Z" fill="#212529"/>
<path fill-rule="evenodd" clip-rule="evenodd" d="M342.922 515.932L342.683 506.318C351.062 501.606 454.117 466.339 456.889 459.736C448.989 443.495 446.872 422.037 394.091 408.442C487.86 374.913 546.664 385.598 570.037 413.998C538.739 467.347 450.803 507.73 342.922 515.92V515.932Z" fill="#1A1E22"/>
<path fill-rule="evenodd" clip-rule="evenodd" d="M296.629 581.83C313.287 561.884 412.89 511.119 406.716 480.186C397.568 434.284 271.593 410.508 236.263 421.583C38.3672 350.847 -26.8756 521.048 156.782 571.927C193.839 582.196 238.052 583.846 296.617 581.83H296.629Z" fill="#212529"/>
<path fill-rule="evenodd" clip-rule="evenodd" d="M390.916 509.972C401.777 499.225 408.467 488.918 406.729 480.186C397.581 434.284 271.606 410.508 236.276 421.583C144.56 388.798 81.3587 407.786 58.2 442.638C106.168 487.28 197.531 517.457 302.375 517.457C333.321 517.457 363.082 514.823 390.916 509.972Z" fill="#1A1E22"/>
<path fill-rule="evenodd" clip-rule="evenodd" d="M314.232 506.936L342.683 506.306L344.674 586.013C319.574 595.892 170.403 599.357 156.795 571.939C263.24 546.223 252.164 460.303 314.232 506.936Z" fill="#E9ECEF" stroke="#212529" stroke-width="2.52" stroke-miterlimit="10"/>
<path fill-rule="evenodd" clip-rule="evenodd" d="M196.964 588.672C176.325 585.32 160.764 579.953 156.795 571.939C173.54 567.895 187.388 562.351 199.055 556.076C200.315 560.309 200.996 564.845 200.996 569.558C200.996 576.425 199.547 582.914 196.964 588.672Z" fill="#E9ECEF" stroke="#181C20" stroke-width="2.52" stroke-miterlimit="10"/>
<path fill-rule="evenodd" clip-rule="evenodd" d="M245.562 519.158C267.751 496.15 279.62 480.929 314.232 506.936C306.206 518.755 290.922 526.743 273.383 526.743C262.963 526.743 253.349 523.921 245.562 519.158Z" fill="#E9ECEF" stroke="#181C20" stroke-width="2.52" stroke-miterlimit="10"/>
<path d="M345.732 505.084C345.014 505.373 344.208 505.033 343.918 504.315C343.628 503.597 343.968 502.79 344.686 502.501L472.765 450.261C473.484 449.971 474.29 450.311 474.58 451.03C474.87 451.748 474.529 452.554 473.811 452.844L345.732 505.084Z" fill="#E9ECEF"/>
<path d="M156.681 459.131C155.963 458.854 155.61 458.048 155.887 457.33C156.165 456.611 156.971 456.259 157.689 456.536L263.391 497.536C264.109 497.813 264.462 498.62 264.184 499.338C263.907 500.056 263.101 500.409 262.383 500.132L156.681 459.131Z" fill="#E9ECEF"/>
<path fill-rule="evenodd" clip-rule="evenodd" d="M359.1 243.155C365.892 233.541 362.175 218.547 359.541 212.638C327.663 211.113 297.637 209.702 272.198 206.212C267.095 212.965 264.021 234.335 269.791 245.965C210.206 255.793 25.9436 418.03 204.045 458.552C519.12 555.534 600.226 345.278 359.088 243.142L359.1 243.155Z" fill="#E9ECEF" stroke="#212529" stroke-width="2.52" stroke-miterlimit="10"/>
<path d="M276.128 247.955C275.435 247.628 275.133 246.796 275.461 246.103C275.788 245.41 276.62 245.108 277.313 245.435C282.076 247.666 292.471 249.593 303.156 250.715C314.029 251.849 325.13 252.139 330.838 251.03C331.594 250.891 332.324 251.383 332.463 252.139C332.602 252.895 332.11 253.625 331.354 253.764C325.382 254.923 313.966 254.646 302.853 253.487C291.904 252.34 281.168 250.324 276.116 247.955H276.128Z" fill="#212529"/>
<path d="M235.355 297.574C235.469 296.818 236.187 296.289 236.943 296.402C237.699 296.516 238.228 297.234 238.115 297.99L222.34 409.487C222.226 410.243 221.508 410.773 220.752 410.659C220.147 410.571 219.694 410.092 219.593 409.525C219.278 408.379 217.804 405.052 217.363 403.931C213.129 393.158 203.767 385.157 192.78 380.57C181.73 375.971 169.079 374.825 158.306 377.786C156.946 378.164 155.597 378.605 154.262 379.134C153.544 379.411 152.737 379.058 152.46 378.34C152.183 377.622 152.536 376.816 153.254 376.538C154.64 375.997 156.089 375.518 157.588 375.102C168.953 371.977 182.272 373.174 193.864 378C205.002 382.637 214.578 390.65 219.353 401.436L235.381 297.574H235.355Z" fill="#212529"/>
<path d="M384.64 306.823C384.488 306.067 384.967 305.336 385.723 305.172C386.479 305.021 387.21 305.5 387.374 306.256L405.102 391.696C405.253 392.452 404.774 393.183 404.018 393.347C403.262 393.511 402.532 393.019 402.368 392.263L384.64 306.823Z" fill="#212529"/>
<path fill-rule="evenodd" clip-rule="evenodd" d="M204.057 458.564L221.395 410.684L268.368 421.659L324.564 456.095C321.464 461.462 319.284 465.998 311.371 466.402C315.454 470.32 322.686 471.933 325.433 474.592C321.628 483.714 305.664 481.118 303.408 479.972C289.082 495.243 263.769 477.25 254.13 473.936C248.296 474.516 214.931 471.089 204.07 458.577L204.057 458.564Z" fill="#E9ECEF" stroke="#212529" stroke-width="2.52" stroke-miterlimit="10"/>
<path d="M263.491 456.107C262.849 455.692 262.647 454.835 263.063 454.192C263.479 453.55 264.336 453.348 264.978 453.764L304.139 478.8C304.782 479.216 304.983 480.073 304.567 480.715C304.152 481.358 303.295 481.559 302.652 481.144L263.491 456.107Z" fill="#212529"/>
<path d="M269.388 441.013C268.771 440.546 268.645 439.677 269.098 439.06C269.564 438.442 270.434 438.316 271.051 438.77C275.612 442.184 286.763 449.417 297.889 456.41C310.716 464.474 323.467 472.185 325.987 473.319C326.693 473.634 327.008 474.453 326.693 475.159C326.378 475.864 325.559 476.179 324.853 475.864C322.207 474.68 309.317 466.88 296.402 458.779C285.201 451.735 273.974 444.452 269.388 441.025V441.013Z" fill="#212529"/>
<path d="M276.721 428.413C276.066 428.009 275.852 427.153 276.255 426.497C276.658 425.842 277.515 425.628 278.17 426.031L325.294 454.898C325.95 455.301 326.164 456.158 325.761 456.813C325.357 457.468 324.501 457.682 323.845 457.279L276.721 428.413Z" fill="#212529"/>
<path fill-rule="evenodd" clip-rule="evenodd" d="M402.696 245.36C408.026 248.333 410.395 254.23 407.988 258.527C405.594 262.823 399.319 263.894 394.002 260.921C388.672 257.947 386.304 252.05 388.71 247.754C391.117 243.457 397.379 242.386 402.696 245.36Z" fill="#E9ECEF" stroke="#212529" stroke-width="2.52" stroke-miterlimit="10"/>
<path fill-rule="evenodd" clip-rule="evenodd" d="M430.933 254.974C422.579 250.916 399.899 249.026 387.312 251.206C380.319 252.416 383.821 266.087 387.841 267.259C384.842 271.82 384.716 279.644 388.786 285.503C386.505 289.787 387.576 298.507 391.671 302.274C395.943 317.092 403.314 317.671 411.554 318.276L411.126 454.066C491.211 452.239 473.609 359.415 447.489 295.47L430.945 254.961L430.933 254.974Z" fill="#E9ECEF" stroke="#212529" stroke-width="2.52" stroke-miterlimit="10"/>
<path d="M387.967 268.645C387.198 268.708 386.53 268.141 386.467 267.372C386.404 266.603 386.971 265.936 387.74 265.873C392.062 265.507 397.518 265.721 402.797 266.2C409.601 266.83 416.14 267.901 419.656 268.796C420.399 268.985 420.853 269.741 420.676 270.484C420.5 271.228 419.731 271.681 418.988 271.492C415.548 270.623 409.185 269.564 402.545 268.96C397.429 268.493 392.15 268.292 387.967 268.645Z" fill="#212529"/>
<path d="M388.899 286.852C388.131 286.915 387.463 286.348 387.4 285.579C387.337 284.81 387.904 284.143 388.673 284.08C392.919 283.714 397.959 283.928 402.835 284.42C409.337 285.062 415.523 286.209 419.102 287.116C419.845 287.305 420.299 288.061 420.122 288.805C419.933 289.548 419.177 290.002 418.434 289.825C414.944 288.943 408.896 287.834 402.57 287.204C397.871 286.738 392.994 286.524 388.912 286.877L388.899 286.852Z" fill="#212529"/>
<path d="M391.659 303.66C390.89 303.66 390.273 303.03 390.273 302.261C390.273 301.493 390.903 300.875 391.671 300.875C396.359 300.901 401.336 301.253 405.935 301.77C411.025 302.35 415.687 303.156 418.976 303.988C419.719 304.177 420.173 304.933 419.996 305.676C419.807 306.419 419.051 306.873 418.308 306.697C415.12 305.89 410.597 305.109 405.645 304.555C401.096 304.038 396.207 303.698 391.671 303.673L391.659 303.66Z" fill="#212529"/>
<path fill-rule="evenodd" clip-rule="evenodd" d="M372.935 335.727H572.972L502.74 484.835H302.715L372.935 335.727Z" fill="#E9ECEF"/>
<path d="M373.174 334.328H575.404L503.862 486.234H300.75C324.589 435.595 348.441 384.955 372.292 334.328H373.174ZM571.007 337.126H374.056L305.147 483.449H502.097L571.007 337.126Z" fill="#212529"/>
<path d="M245.737 486.234C244.969 486.234 244.339 485.604 244.339 484.835C244.339 484.067 244.969 483.437 245.737 483.437H502.752C503.521 483.437 504.151 484.067 504.151 484.835C504.151 485.604 503.521 486.234 502.752 486.234H245.737Z" fill="#1A1A1A"/>
<path d="M438.076 422.15C444.631 422.15 449.945 416.836 449.945 410.281C449.945 403.726 444.631 398.412 438.076 398.412C431.521 398.412 426.207 403.726 426.207 410.281C426.207 416.836 431.521 422.15 438.076 422.15Z" fill="#212529"/>
</svg>
