<svg width="630" height="630" viewBox="0 0 630 630" fill="none" xmlns="http://www.w3.org/2000/svg">
<path d="M342.896 183.758C344.03 178.076 346.424 173.59 349.461 170.654C353.896 166.37 359.767 165.236 365.173 168.197C368.348 169.936 371.284 173.162 373.64 178.051C371.574 180.268 369.268 181.138 366.786 181.251C361.342 171.184 352.989 174.208 350.481 184.338C347.76 185.044 345.24 184.64 342.896 183.746V183.758Z" fill="#F5F7FF"/>
<path fill-rule="evenodd" clip-rule="evenodd" d="M328.809 173.426C324.487 167.744 303.924 161.482 300.358 164.279C299.388 183.834 295.507 209.614 291.45 219.618C302.425 223.121 324.198 221.861 333.711 219.379C328.645 209.903 327.826 180.671 328.809 173.414V173.426Z" fill="#E9ECEF" stroke="#020202" stroke-width="2.52" stroke-miterlimit="10"/>
<path fill-rule="evenodd" clip-rule="evenodd" d="M349.788 136.546C355.206 135.047 360.901 138.575 362.514 144.409C364.127 150.255 361.053 156.202 355.635 157.689C350.217 159.188 344.521 155.66 342.909 149.827C341.296 143.993 344.37 138.033 349.788 136.546Z" fill="#E9ECEF" stroke="#020202" stroke-width="2.52" stroke-miterlimit="10"/>
<path fill-rule="evenodd" clip-rule="evenodd" d="M300.346 164.279C279.291 175.342 271.946 133.988 298.582 144.963C305.26 134.618 323 137 318.603 113.929C323.177 113.614 327.65 113.69 332.01 114.269C342.052 115.592 350.507 122.333 354.236 131.758C364.089 156.656 352.787 182.158 336.747 187.551C325.533 191.331 313.148 181.755 300.333 164.291L300.346 164.279Z" fill="#E9ECEF" stroke="#020202" stroke-width="2.52" stroke-miterlimit="10"/>
<path d="M287.406 152.8C286.738 153.191 285.894 152.976 285.491 152.309C285.1 151.641 285.314 150.797 285.982 150.393C286.234 150.242 286.499 150.104 286.763 149.978C288.628 149.07 290.669 148.768 292.622 149.31C294.563 149.839 296.364 151.187 297.763 153.543C297.939 153.833 298.103 154.148 298.267 154.476C298.494 154.892 298.519 155.408 298.267 155.849C297.889 156.517 297.032 156.744 296.364 156.366C295.533 155.887 294.752 155.572 294.021 155.383C293.29 155.194 292.597 155.156 291.98 155.219C291.211 155.307 290.531 154.753 290.442 153.984C290.354 153.216 290.909 152.535 291.677 152.447C292.093 152.397 292.509 152.384 292.95 152.409C292.61 152.22 292.257 152.069 291.891 151.968C290.631 151.616 289.271 151.842 287.985 152.46C287.796 152.548 287.607 152.649 287.406 152.775V152.8Z" fill="#212529"/>
<path d="M299.174 165.022C298.758 164.367 298.96 163.51 299.615 163.107C300.27 162.691 301.127 162.893 301.53 163.548C303.698 166.988 306.318 170.528 309.481 173.905C312.644 177.269 316.335 180.47 320.67 183.216C321.312 183.632 321.514 184.489 321.098 185.132C320.682 185.774 319.826 185.976 319.183 185.56C314.634 182.662 310.766 179.323 307.465 175.808C304.164 172.292 301.442 168.613 299.187 165.035L299.174 165.022Z" fill="#212529"/>
<path d="M315 79.5641C315 79.5641 304.281 76.4362 301.952 76.561C294.869 76.9404 287.851 77.2835 280.676 84.8918C273.5 92.5001 271.853 103.072 269.189 113C267.113 120.737 261.417 124.224 254.5 127.5C246.351 131.36 240.602 139.545 237.885 148.603C236.431 153.45 235.387 159.091 237.444 163.89C238.682 166.779 241.092 169.321 241.092 172.56C241.092 174.407 241.209 176.085 240.311 177.752C239.422 179.404 238.113 180.85 236.782 182.181C233.793 185.169 230.789 187.293 228.587 191.038C226.583 194.445 234.118 193.094 231.352 200.047C228.587 207 249.5 207.5 255.921 202.575C262.341 197.65 260.585 199.972 263.386 199.894C265.449 199.837 278.026 202.671 280 203C292.811 206.784 294.87 202.87 295.5 203.5M330 202.575C333.5 199 344.406 204.682 346.932 205.086C349.141 205.44 354.471 207.145 356.383 205.527C358.595 203.655 360.385 200.641 363.085 199.453C365.148 198.545 367.232 197.98 369.498 198.52C371.677 199.039 373.477 200.381 375.657 200.946C377.072 201.313 379.437 201.421 380.9 201.421C383.761 201.421 395 205.527 389.655 197.79C384.31 190.053 391.068 189.266 391.284 185.133C391.5 181 389.664 180.617 388.671 178.414C387.244 175.248 385.567 172.32 384.327 169.048C382.963 165.448 382.254 160.379 383.106 156.594C383.778 153.606 385.803 151.03 387.314 148.416C390.693 142.57 378 133.5 372 127.5C366 121.5 363.983 102.149 362.983 95.6489C360.5 87.5001 363.085 84.8918 350.5 82.0001C343.652 80.4266 339.881 75.1694 333 75.9671C330.58 76.2477 323.18 76.0497 320.803 76.5779C318.577 77.0725 317.423 77.7486 315.611 79.2587" stroke="#212529" stroke-width="3" stroke-linecap="round"/>
<path d="M309.119 108.79C309.302 109.794 310.393 110.909 310.972 111.692C311.65 112.61 312.417 113.419 312.903 114.455C313.505 115.74 313.936 116.701 314.25 118.061C314.891 120.837 313.789 122.887 312.863 125.47C312.392 126.785 311.569 128.058 310.942 129.313C310.594 130.007 309.406 127.407 309.119 128.084C308.507 129.531 302.446 127.43 304 131.214C305.851 134.107 303.308 135.055 302.127 135.533C300.992 135.992 299.8 136.635 298.779 137.316C297.978 137.85 297.255 138.896 296.461 139.317C295.687 139.726 294.265 139.111 293.49 138.881C291.496 138.29 289.228 138.564 287.17 138.564C285.891 138.564 284.53 138.746 283.367 139.317C280.895 140.529 278.435 141.92 276.493 143.912C274.534 145.922 274.532 148.043 274.532 150.687C274.532 153.385 275.06 155.779 275.641 158.393C276.142 160.647 277.061 163.059 277.998 165.168C278.794 166.959 280.535 168.368 282.337 169.011C283.603 169.464 289.733 174.936 291.073 174.936C293.288 176.986 287.74 174.697 291.726 171.666C292.63 171.398 289.488 177.995 292.222 172.745C289.904 177.995 286.728 178.976 289.448 176.044C282.953 187.81 300.5 166 294 171C293.607 172.18 293.884 172.739 293.569 173.944C293.028 176.009 292.65 178.004 292.321 180.105C292.166 181.094 292.02 182.108 291.726 183.056C290.947 185.578 290.934 188.309 290.934 190.941C290.934 191.2 290.91 192.551 291.053 192.307C292.274 190.227 292.964 187.931 293.787 185.691C293.954 185.235 294.046 183.856 294.232 184.304C294.805 185.679 292.699 187.826 292.5 189.237C292.329 190.459 292.656 192.479 292.222 193.655C291.669 195.15 292.192 196.001 291.726 197.5C291.512 198.192 292.288 198.468 291.39 198.468C289.74 198.468 287.715 198.793 286.12 198.429C285.113 198.198 284.027 198.477 283.05 198.151C281.739 197.714 280.378 197.408 279.068 196.963C275.376 195.709 271.727 194.189 267.757 194.189C263.542 194.189 258.901 194.747 254.9 196.151C253.419 196.67 252.124 197.737 250.602 198.25C248.693 198.894 246.807 199.465 244.797 199.677C242.835 199.883 240.829 199.612 238.914 199.538C238.011 199.503 236.713 199.576 236.735 198.468C236.755 197.412 239.227 194.007 237.804 193.258C237.158 192.918 236.435 192.711 235.804 192.327C235.687 192.257 234.972 192.021 234.972 191.941C234.972 191.261 236.394 190.669 236.854 190.445C238.949 189.426 240.466 187.941 241.945 186.166C243.011 184.887 244.431 183.644 245.114 182.105C246.178 179.712 246.362 177.135 246.362 174.538C246.362 172.896 246.032 171.669 245.411 170.14C244.812 168.666 244.609 167.055 244.084 165.564C242.953 162.351 242.44 158.537 242.44 155.144C242.44 153.385 242.23 151.481 242.618 149.756C243.074 147.729 243.968 145.823 244.758 143.912C246.476 139.753 250.02 137.407 253.632 134.998C255.497 133.755 257.469 132.591 259.239 131.214C261.007 129.839 262.478 128.103 264.151 126.619C265.49 125.431 266.804 124.274 267.895 122.855C268.803 121.675 269.544 120.387 270.352 119.13C271.292 117.668 271.765 115.904 272.709 114.455C273.645 113.019 274.357 111.374 275.067 109.82C276.197 107.345 277.143 104.81 278.276 102.332C279.184 100.343 279.959 98.2431 280.95 96.3097C283.442 91.447 286.742 87.6863 291.786 85.5332C294.51 84.3706 297.633 83.8816 300.502 83.156C302.262 82.7108 304.046 82.4557 305.851 82.2646C306.451 82.2011 307.377 82.0544 307.911 82.4033C308.782 82.9727 309.606 83.5508 310.546 84.0079C311.348 84.3982 312.138 84.7662 313.042 84.721C314.403 84.653 315.805 83.7554 317.142 83.473C321.93 82.4624 326.481 81.9856 331.366 82.0467C335.037 82.0926 339.068 83.4377 342.419 84.8597C345.047 85.9743 352.164 86.4827 353.939 89.0003C356.982 93.3164 356.641 97.3993 358.545 102.332C360.226 106.689 359.994 111.089 361.5 115.5C362.897 119.591 363.545 125.683 366 129.313C369.28 134.161 374.207 137.999 377.681 142.724C378.829 144.285 380.184 145.608 380.969 147.419C382.06 149.935 379.017 147.324 379 150C378.969 154.896 376.871 166.16 378.5 171C379.724 174.638 383.164 177.43 383.5 181.382C383.612 182.704 386.632 183.298 386.139 184.502C385.686 185.612 384.521 186.286 384.5 187.5C384.477 188.799 381.583 187.249 382 188.5C382.154 188.964 380.458 190.933 380.613 191.396C380.896 192.246 382.483 193.646 382.5 194.556C382.51 195.088 382.384 192.379 382.5 192.902C382.608 193.385 389 201 381.861 196.309C380.604 195.187 379.323 190.238 377.621 189.724C376.09 189.262 379.578 196.289 378 196.309C377.116 196.32 374.354 192.996 373.659 193.655C372.967 194.31 370.544 192.074 369.559 192.307C365.301 193.316 362.865 194.906 358.584 195.477C356.777 195.718 355.33 197.668 354.048 198.785C352.382 200.237 350.666 200.251 348.541 200.251C346.022 200.251 344.645 195.925 342.162 195.477C339.72 195.036 336.968 197.874 334.644 196.963C333.968 196.698 338.056 194.835 338 194C337.934 193.013 360.16 191.555 356.425 192.07M356.425 192.07C364.346 191.717 333.014 193.003 334.159 192.902C336.9 192.658 339.855 192.38 342.439 191.396C344.864 190.473 346.783 189.497 348.937 188.068C350.523 187.016 351.873 185.149 352.701 183.453C353.252 182.322 354.165 181.406 354.84 180.352C355.463 179.38 355.805 178.158 356.187 177.074C356.554 176.032 357.113 175.081 357.435 174.023C357.76 172.956 358.05 171.877 358.505 170.854C359.33 168.997 361.306 168.025 361.5 166C361.65 164.432 361.094 163.523 361.5 162C361.954 160.298 362.064 158.918 363.616 158.314C365.914 157.419 367.609 154.841 368.311 152.53C368.898 150.596 368.866 148.546 368.846 146.547C368.821 144.085 368.035 141.956 366.924 139.812C366.482 138.958 366.138 137.996 365.458 137.316C364.102 135.959 361.888 135.628 360.506 134.245C358.875 132.615 358.63 129.388 357.792 127.332C356.586 124.371 355.67 121.258 354.226 118.397C352.544 115.066 349.491 111.197 345.747 110.038C341.071 108.589 335.759 109.146 330.93 109.146C326.433 109.146 312.003 109.5 316.5 109.5C321.098 109.5 327.468 107.659 332 108.5C334.631 108.989 337.506 109.272 340 110.216C341.942 110.951 343.631 112.875 345.391 114C346.615 114.783 349.18 115.29 350.185 116.357C350.776 116.985 351.334 117.444 352 118C353.055 118.882 353.249 119.523 354.226 120.5C356.533 122.807 357.52 126.836 359.872 129.154C363.611 132.839 368.072 135.787 371.659 139.633C376.065 144.36 376.616 150.134 377.681 156.5C378.154 159.329 373.921 163.139 373.921 166C373.921 167.798 374.892 170.237 374.5 172C373.92 174.61 378.43 175.754 377.621 178.302C376.939 180.454 376.242 182.629 375.502 184.76C375.085 185.961 374.509 187.226 373.758 188.266C371.748 191.053 367.58 191.144 364.547 191.555C362.491 191.833 360.254 191.975 358.346 192.852C357.638 193.178 356.394 193.418 355.87 194.011C354.939 195.067 355.339 193.36 355.296 192.585C355.256 191.871 355.171 191.599 355.593 190.832C357.538 187.295 360.166 184.408 362.804 181.392C365.925 177.824 369.498 174.112 371.124 169.566C372.834 164.782 373.182 159.413 373.719 154.392C373.769 153.923 373.755 152.525 373.857 152.985C374.178 154.426 374.206 156.001 374.254 157.462C374.442 163.289 373.889 168.949 372.035 174.499C371.252 176.841 370.282 179.284 368.955 181.382C368.709 181.771 368.424 182.109 368.132 182.462C368.097 182.505 367.48 183.287 367.459 183.215C367.269 182.56 367.419 181.439 367.419 180.818C367.419 177.767 367.445 174.716 367.518 171.666C367.581 169.063 367.776 161.258 367.776 163.861C367.776 172.243 365.032 181.091 360.367 188.048C359.307 189.63 357.981 190.978 356.425 192.07ZM356.425 192.07C355.468 192.741 354.498 193.959 353.335 194.229C352.612 194.397 351.953 194.503 351.215 194.556C350.608 194.599 350.197 194.794 351.255 194.269C355.298 192.259 359.701 191.051 363.834 189.237C365.789 188.379 368.038 187.338 368.766 185.136C369.504 182.906 369.226 180.092 369.192 177.787C369.151 174.97 368.698 172.212 368.529 169.407C368.404 167.337 367.995 164.891 368.39 162.831C369.443 157.33 369.559 151.845 369.559 146.25C369.559 141.838 369.682 137.53 368.311 133.294C368.144 132.781 367.384 131.514 367.984 132.601C368.505 133.545 369.335 134.46 370.212 135.077C371.909 136.271 373.599 136.977 375.66 137.276C377.218 137.502 377.463 139.18 378.5 140.5C379.232 141.432 380.722 141.185 381.326 142.199C381.578 142.622 382.039 143.039 382.039 143.556C382.039 145.237 378.483 142.485 378.235 142.308C374.4 139.566 370.743 136.5 367.033 133.592C364.222 131.387 361.565 129.124 359.04 126.599C355.226 122.784 353.566 117.323 351.829 112.336C350.803 109.39 349.74 106.434 348.343 103.639C347.381 101.717 346.337 99.8459 345.431 97.8945C344.608 96.124 343.822 94.2926 342.697 92.6845C342.487 92.3853 342.827 93.4051 342.935 93.7542C343.563 95.798 344.375 97.7158 345.391 99.5981C346.072 100.86 346.79 102.113 347.53 103.342C347.543 103.363 347.865 103.939 348.026 104.055C348.101 104.11 348.041 103.864 348.006 103.778C346.776 100.745 343.952 98.1599 341.053 96.7851C339.718 96.1524 338.212 95.6069 336.754 95.339C335.544 95.1167 335.214 95.6196 334.644 96.5969C333.518 98.5271 332.096 101.48 329.979 102.51C328.206 103.373 328.513 100.07 330.078 100.133C330.434 100.147 330.459 100.422 330.217 100.658C328.869 101.971 326.345 102.26 324.611 102.51C320.439 103.111 307.837 103.934 312.051 103.976C326.011 104.114 338.54 100.133 352.5 100.133C353.672 100.133 358.627 103.976 357.455 103.976C355.032 103.976 352.608 103.976 350.185 103.976C337.414 103.976 324.644 103.976 311.873 103.976C311.621 103.976 311.229 104.034 311.596 103.857C312.699 103.323 313.872 102.944 315.023 102.53C315.449 102.376 316.646 102.168 316.251 101.946C315.861 101.726 315.361 101.853 314.914 101.846C313.835 101.831 310.861 101.837 310.169 101.837C305.032 101.837 299.895 101.848 294.757 101.837C292.874 101.832 282.502 106.259 284.199 105.442C286.463 104.351 294.155 99.5781 296.54 98.9642C304.147 97.0059 311.888 95.6838 319.599 94.2198C321.462 93.866 323.326 93.5083 325.165 93.0411C326.186 92.7818 324.541 92.9225 324.492 92.9222C320.469 92.9029 316.45 92.7439 312.428 92.7439C310.925 92.7439 312.543 92.706 312.586 92.7043C315.761 92.578 318.938 92.5708 322.115 92.5657C325.462 92.5602 335.506 92.5657 332.158 92.5657C325.781 92.5657 319.402 92.2292 313.022 92.2091C311.893 92.2055 308.505 92.2091 309.634 92.2091C311.196 92.2091 312.758 92.2091 314.319 92.2091C323.603 92.2091 332.88 91.8896 342.162 91.8525C344.258 91.8441 346.355 91.8525 348.452 91.8525C348.695 91.8525 349.326 91.7892 348.64 91.7138C340.325 90.8013 331.777 90.9611 323.422 90.9611C315.159 90.9611 306.917 91.2334 298.66 91.3176C297.698 91.3275 296.708 91.7347 295.817 92.0506C294.634 92.4698 293.24 92.8989 292.281 93.7542C291.37 94.5666 290.827 95.6239 290.053 96.5276C290.005 96.5836 289.688 94.3223 289.686 94.091C289.665 91.4924 289.104 89.1457 291.469 87.3557C292.36 86.6812 293.146 86.2761 294.143 85.7907C294.368 85.6816 295.188 85.348 294.52 85.2559C293.136 85.065 291.733 85.0776 290.34 85.0776C289.729 85.0776 289.084 85.2322 290.013 84.8696C291.346 84.3493 292.697 83.8691 294.024 83.3343C295.085 82.9071 297.285 82.7967 298.303 83.156C298.954 83.3859 299.346 85.0793 299.522 85.6124C300.442 88.4132 301.06 91.2987 302.067 94.0712C303.704 98.5787 305.799 102.903 307.356 107.443C308.401 110.489 308.585 113.173 308.585 116.357C308.585 119.19 308.439 121.872 307.119 124.459C305.707 127.225 303.05 129.95 300.205 131.214C297.8 132.283 295.324 133.175 292.925 134.275C290.635 135.325 288.401 136.433 285.962 137.098C285.916 137.11 285.25 137.405 285.318 137.098C285.576 135.937 286.605 134.682 287.259 133.75C290.699 128.846 295.069 124.42 297.947 119.15C299.475 116.352 300.361 113.416 301.255 110.384C301.607 109.188 302.264 107.63 302.166 106.353C302.129 105.875 301.862 107.262 301.72 107.72C300.904 110.362 300.05 113.008 298.898 115.525C296.423 120.929 292.84 125.85 289.448 130.699C286.921 134.312 284.231 137.976 280.524 140.475C280.294 140.631 277.176 142.606 276.889 142.09C276.655 141.668 277.083 141.141 277.236 140.683C278.27 137.58 279.659 134.608 281.128 131.69C283.923 126.141 287.645 121.033 290.181 115.367C291.436 112.563 292.36 109.673 292.36 106.591C292.36 106.207 292.559 105.177 292.281 105.442C291.508 106.182 290.985 108.236 290.518 109.146C286.094 117.771 281.395 126.443 275.423 134.107C275.188 134.408 273.848 136.12 273.422 135.998C273.385 135.988 277.282 127.87 277.404 127.609C279.484 123.163 281.687 118.549 283.03 113.812C283.255 113.017 283.493 112.172 283.585 111.345C283.633 110.915 283.011 112.001 282.792 112.375C277.943 120.667 273.494 129.186 268.846 137.593C267.544 139.948 266.267 142.553 264.221 144.358C262.305 146.048 260.111 147.391 258.228 149.122C254.362 152.678 251.559 158.508 250.582 163.603C250.126 165.977 250.258 168.478 250.552 170.863C250.843 173.221 250.85 175.594 250.958 177.965C251.14 181.976 251.199 185.921 249.076 189.475C248.115 191.084 246.33 191.848 244.797 192.902C244.677 192.984 244.253 193.412 244.312 192.971C244.621 190.65 245.666 188.256 246.372 186.048C248.677 178.837 250.047 171.864 250.384 164.277C250.556 160.394 250.523 156.442 252.345 152.906C254.102 149.495 256.328 146.42 259.298 143.972C262.155 141.617 265.681 139.901 267.143 136.286C267.194 136.16 267.52 135.237 267.321 135.572C265.645 138.401 263.257 140.94 260.764 143.061C258.387 145.082 255.928 146.971 253.306 148.657C252.647 149.08 252.033 149.575 251.374 149.994C250.553 150.516 250.653 149.603 250.641 149.003C250.596 146.681 250.635 144.518 251.998 142.536C253.119 140.905 254.69 139.915 256.584 139.396C256.86 139.32 259.259 138.63 259.466 139C259.738 139.483 259.612 140.576 259.575 141.02C259.237 145.142 258.254 149.219 257.436 153.263C256.087 159.933 255.365 166.452 255.187 173.251C255.091 176.962 255.098 180.672 255.098 184.384C255.098 186.508 255.002 188.713 255.623 190.772C255.99 191.987 256.881 191.318 257.634 190.683C259.174 189.384 260.453 187.815 261.626 186.186C265.477 180.836 268.581 174.916 270.837 168.724C273.466 161.508 274.709 153.34 273.403 145.695C273.253 144.823 272.967 143.853 272.531 145.16C270.762 150.466 269.56 156.013 268.45 161.484C267.895 164.219 267.343 166.978 267.024 169.754C266.901 170.819 266.911 170.975 266.875 171.894C266.856 172.384 266.865 172.062 266.865 171.478C266.865 164.363 266.865 157.248 266.865 150.133C266.865 149.986 266.944 148.186 266.816 149.905C266.421 155.196 265.967 160.483 265.548 165.772C265.207 170.072 264.878 174.37 264.666 178.678C264.541 181.226 264.546 183.8 264.132 186.325C263.416 190.681 265.559 177.612 266.301 173.26C266.846 170.066 267.349 166.861 267.737 163.643C267.822 162.938 267.836 162.226 267.935 161.523C267.966 161.301 268.05 161.957 268.094 162.177C269.082 167.167 270.138 172.207 271.56 177.094C272.209 179.323 272.907 181.554 273.719 183.73C273.95 184.346 274.494 186.657 275.245 185.037C277.021 181.207 278.934 168.57 278.305 172.745C277.556 177.724 276.013 182.702 275.859 187.751C275.851 188.014 275.999 188.724 276.126 188.494C277.126 186.694 277.679 184.448 278.127 182.462C278.574 180.482 278.822 178.474 279.048 176.46C279.168 175.395 279.103 174.808 279.464 176.044C280.37 179.145 281.649 182.141 282.495 185.255C282.648 185.818 282.716 186.359 282.733 186.939C282.746 187.401 282.731 186.015 282.733 185.552C282.74 183.611 282.763 181.669 282.842 179.728C282.912 178 282.87 176.04 283.426 174.37C283.632 173.754 283.674 174.481 283.704 174.697C283.954 176.55 284.128 178.418 284.258 180.283C284.303 180.922 284.337 181.563 284.337 182.205C284.337 182.875 284.28 180.864 284.248 180.194C284.19 178.955 284.163 177.72 284.199 176.48C284.203 176.349 284.465 172.99 284.219 175.489C283.72 180.549 282.6 185.496 281.98 190.534C281.773 192.215 282.011 192.295 280.257 192.367C277.523 192.478 274.857 192.199 272.135 192.07C271.274 192.029 269.017 192.398 270.867 191.495C274.183 189.877 277.725 188.423 280.772 186.325C281.164 186.055 282.23 185.204 281.762 185.295C280.427 185.553 279.17 186.161 277.82 186.404C276.38 186.664 274.91 186.673 273.452 186.691C273.014 186.697 270.738 187.025 270.273 186.602C269.841 186.21 269.8 185.078 269.758 184.601C269.537 182.125 269.835 179.689 270.768 177.371C272.324 173.503 274.496 171.032 278.711 170.695C280.184 170.577 281.597 170.702 283.05 170.339C284.208 170.049 285.467 172.772 285.5 171.894C285.566 170.159 281.489 165.264 280.257 163.861C279.396 162.881 278.158 161.406 277.236 160.453C274.398 157.526 275.667 151.383 277.028 147.3" stroke="#212529" stroke-width="11" stroke-linecap="round"/>
<path fill-rule="evenodd" clip-rule="evenodd" d="M321.313 508.271L292.862 507.641L290.871 587.349C315.97 597.227 465.142 600.692 478.75 573.275C372.305 547.558 383.38 461.639 321.313 508.271Z" fill="#E9ECEF" stroke="#212529" stroke-width="2.52" stroke-miterlimit="10"/>
<path fill-rule="evenodd" clip-rule="evenodd" d="M438.581 590.007C459.22 586.656 474.781 581.288 478.75 573.275C462.004 569.23 448.157 563.686 436.489 557.411C435.229 561.645 434.549 566.181 434.549 570.893C434.549 577.76 435.998 584.249 438.581 590.007Z" fill="#E9ECEF" stroke="#181C20" stroke-width="2.52" stroke-miterlimit="10"/>
<path fill-rule="evenodd" clip-rule="evenodd" d="M344.673 586.013L342.682 506.306C351.061 501.593 454.117 466.326 456.889 459.723C448.988 443.482 446.872 422.024 394.09 408.429C657.758 314.156 645.208 569.243 344.673 586.001V586.013Z" fill="#212529"/>
<path fill-rule="evenodd" clip-rule="evenodd" d="M342.922 515.932L342.682 506.319C351.061 501.606 454.117 466.339 456.889 459.736C448.989 443.495 446.872 422.037 394.09 408.442C487.86 374.913 546.664 385.598 570.037 413.998C538.738 467.347 450.803 507.73 342.922 515.92V515.932Z" fill="#1A1E22"/>
<path fill-rule="evenodd" clip-rule="evenodd" d="M296.629 581.83C313.286 561.884 412.889 511.119 406.715 480.186C397.568 434.284 271.593 410.508 236.263 421.583C38.367 350.847 -26.8758 521.048 156.782 571.926C193.838 582.195 238.052 583.846 296.617 581.83H296.629Z" fill="#212529"/>
<path fill-rule="evenodd" clip-rule="evenodd" d="M390.916 509.972C401.777 499.225 408.467 488.918 406.729 480.186C397.581 434.284 271.606 410.508 236.276 421.583C144.56 388.798 81.3587 407.786 58.2 442.638C106.168 487.28 197.531 517.457 302.375 517.457C333.321 517.457 363.082 514.823 390.916 509.972Z" fill="#1A1E22"/>
<path fill-rule="evenodd" clip-rule="evenodd" d="M314.232 506.936L342.683 506.306L344.673 586.013C319.574 595.892 170.403 599.357 156.795 571.939C263.24 546.223 252.164 460.303 314.232 506.936Z" fill="#E9ECEF" stroke="#212529" stroke-width="2.52" stroke-miterlimit="10"/>
<path fill-rule="evenodd" clip-rule="evenodd" d="M196.963 588.672C176.325 585.32 160.764 579.953 156.795 571.939C173.54 567.895 187.387 562.35 199.055 556.076C200.315 560.309 200.995 564.845 200.995 569.558C200.995 576.425 199.546 582.914 196.963 588.672Z" fill="#E9ECEF" stroke="#181C20" stroke-width="2.52" stroke-miterlimit="10"/>
<path fill-rule="evenodd" clip-rule="evenodd" d="M245.562 519.158C267.75 496.15 279.62 480.929 314.232 506.936C306.206 518.755 290.922 526.743 273.383 526.743C262.962 526.743 253.349 523.921 245.562 519.158Z" fill="#E9ECEF" stroke="#181C20" stroke-width="2.52" stroke-miterlimit="10"/>
<path d="M345.732 505.084C345.014 505.373 344.207 505.033 343.917 504.315C343.628 503.597 343.968 502.79 344.686 502.501L472.765 450.261C473.483 449.971 474.29 450.311 474.579 451.03C474.869 451.748 474.529 452.554 473.811 452.844L345.732 505.084Z" fill="#E9ECEF"/>
<path d="M156.681 459.131C155.963 458.854 155.61 458.048 155.887 457.329C156.164 456.611 156.971 456.258 157.689 456.536L263.39 497.536C264.109 497.813 264.461 498.62 264.184 499.338C263.907 500.056 263.101 500.409 262.382 500.132L156.681 459.131Z" fill="#E9ECEF"/>
<path fill-rule="evenodd" clip-rule="evenodd" d="M359.1 243.155C365.892 233.541 362.175 218.547 359.541 212.637C327.663 211.113 297.637 209.702 272.198 206.211C267.095 212.965 264.021 234.335 269.791 245.964C210.206 255.792 25.9436 418.03 204.045 458.552C519.12 555.534 600.226 345.278 359.088 243.142L359.1 243.155Z" fill="#E9ECEF" stroke="#212529" stroke-width="2.52" stroke-miterlimit="10"/>
<path d="M276.129 247.955C275.436 247.627 275.133 246.796 275.461 246.103C275.788 245.41 276.62 245.107 277.313 245.435C282.076 247.665 292.471 249.593 303.156 250.714C314.029 251.848 325.13 252.138 330.838 251.029C331.594 250.891 332.325 251.382 332.463 252.138C332.602 252.894 332.11 253.625 331.354 253.764C325.382 254.923 313.966 254.646 302.853 253.486C291.904 252.34 281.169 250.324 276.116 247.955H276.129Z" fill="#212529"/>
<path d="M235.355 297.574C235.469 296.818 236.187 296.289 236.943 296.402C237.699 296.515 238.228 297.234 238.115 297.99L222.34 409.487C222.226 410.243 221.508 410.772 220.752 410.659C220.147 410.571 219.694 410.092 219.593 409.525C219.278 408.378 217.804 405.052 217.363 403.93C213.129 393.157 203.767 385.156 192.78 380.57C181.73 375.971 169.079 374.824 158.306 377.785C156.946 378.163 155.597 378.604 154.262 379.134C153.544 379.411 152.737 379.058 152.46 378.34C152.183 377.622 152.536 376.815 153.254 376.538C154.64 375.996 156.089 375.517 157.588 375.102C168.953 371.977 182.272 373.174 193.864 378C205.002 382.636 214.578 390.65 219.353 401.436L235.381 297.574H235.355Z" fill="#212529"/>
<path d="M384.64 306.822C384.489 306.066 384.967 305.335 385.723 305.171C386.479 305.02 387.21 305.499 387.374 306.255L405.102 391.696C405.253 392.452 404.775 393.182 404.019 393.346C403.263 393.51 402.532 393.019 402.368 392.263L384.64 306.822Z" fill="#212529"/>
<path fill-rule="evenodd" clip-rule="evenodd" d="M204.057 458.565L221.395 410.685L268.368 421.659L324.564 456.095C321.464 461.463 319.284 465.999 311.371 466.402C315.454 470.32 322.686 471.933 325.433 474.592C321.628 483.714 305.664 481.119 303.408 479.972C289.082 495.243 263.769 477.25 254.13 473.937C248.296 474.516 214.931 471.089 204.07 458.577L204.057 458.565Z" fill="#E9ECEF" stroke="#212529" stroke-width="2.52" stroke-miterlimit="10"/>
<path d="M263.492 456.108C262.849 455.692 262.647 454.835 263.063 454.193C263.479 453.55 264.336 453.348 264.978 453.764L304.139 478.8C304.782 479.216 304.983 480.073 304.568 480.716C304.152 481.358 303.295 481.56 302.652 481.144L263.492 456.108Z" fill="#212529"/>
<path d="M269.388 441.013C268.771 440.547 268.645 439.677 269.098 439.06C269.565 438.442 270.434 438.316 271.051 438.77C275.613 442.185 286.764 449.417 297.889 456.41C310.716 464.474 323.467 472.185 325.987 473.319C326.693 473.634 327.008 474.453 326.693 475.159C326.378 475.864 325.559 476.179 324.853 475.864C322.207 474.68 309.318 466.881 296.403 458.779C285.201 451.735 273.975 444.453 269.388 441.025V441.013Z" fill="#212529"/>
<path d="M276.722 428.413C276.066 428.01 275.852 427.153 276.255 426.498C276.659 425.842 277.515 425.628 278.171 426.031L325.295 454.898C325.95 455.301 326.164 456.158 325.761 456.813C325.358 457.468 324.501 457.683 323.846 457.28L276.722 428.413Z" fill="#212529"/>
<path fill-rule="evenodd" clip-rule="evenodd" d="M402.696 245.36C408.026 248.333 410.395 254.23 407.988 258.527C405.594 262.823 399.319 263.894 394.002 260.921C388.672 257.947 386.304 252.05 388.71 247.754C391.117 243.457 397.379 242.386 402.696 245.36Z" fill="#E9ECEF" stroke="#212529" stroke-width="2.52" stroke-miterlimit="10"/>
<path fill-rule="evenodd" clip-rule="evenodd" d="M430.933 254.974C422.579 250.916 399.899 249.026 387.312 251.206C380.319 252.416 383.821 266.087 387.841 267.259C384.842 271.82 384.716 279.644 388.786 285.503C386.505 289.787 387.576 298.507 391.671 302.274C395.943 317.092 403.314 317.671 411.554 318.276L411.126 454.066C491.211 452.239 473.609 359.415 447.489 295.47L430.945 254.961L430.933 254.974Z" fill="#E9ECEF" stroke="#212529" stroke-width="2.52" stroke-miterlimit="10"/>
<path d="M387.967 268.645C387.198 268.708 386.531 268.141 386.468 267.372C386.405 266.603 386.972 265.936 387.74 265.873C392.062 265.507 397.518 265.721 402.797 266.2C409.601 266.83 416.141 267.901 419.656 268.796C420.399 268.985 420.853 269.741 420.677 270.484C420.5 271.228 419.732 271.681 418.988 271.492C415.548 270.623 409.185 269.564 402.545 268.96C397.43 268.493 392.15 268.292 387.967 268.645Z" fill="#212529"/>
<path d="M388.899 286.852C388.131 286.915 387.463 286.348 387.4 285.579C387.337 284.81 387.904 284.143 388.673 284.08C392.919 283.714 397.959 283.928 402.835 284.42C409.337 285.062 415.523 286.209 419.102 287.116C419.845 287.305 420.299 288.061 420.122 288.805C419.933 289.548 419.177 290.002 418.434 289.825C414.944 288.943 408.896 287.834 402.571 287.204C397.871 286.738 392.995 286.524 388.912 286.877L388.899 286.852Z" fill="#212529"/>
<path d="M391.659 303.66C390.89 303.66 390.273 303.03 390.273 302.261C390.273 301.493 390.903 300.875 391.671 300.875C396.359 300.901 401.336 301.253 405.935 301.77C411.025 302.35 415.687 303.156 418.976 303.988C419.719 304.177 420.173 304.933 419.996 305.676C419.807 306.42 419.051 306.873 418.308 306.697C415.12 305.89 410.597 305.109 405.645 304.555C401.096 304.038 396.207 303.698 391.671 303.673L391.659 303.66Z" fill="#212529"/>
<path fill-rule="evenodd" clip-rule="evenodd" d="M372.935 335.727H572.973L502.74 484.835H302.715L372.935 335.727Z" fill="#E9ECEF"/>
<path d="M373.174 334.329H575.404L503.862 486.234H300.75C324.589 435.595 348.441 384.955 372.292 334.329H373.174ZM571.007 337.126H374.056L305.147 483.45H502.098L571.007 337.126Z" fill="#212529"/>
<path d="M245.737 486.234C244.969 486.234 244.339 485.604 244.339 484.835C244.339 484.067 244.969 483.437 245.737 483.437H502.752C503.521 483.437 504.151 484.067 504.151 484.835C504.151 485.604 503.521 486.234 502.752 486.234H245.737Z" fill="#1A1A1A"/>
<path d="M438.076 422.151C444.631 422.151 449.945 416.836 449.945 410.281C449.945 403.726 444.631 398.412 438.076 398.412C431.521 398.412 426.207 403.726 426.207 410.281C426.207 416.836 431.521 422.151 438.076 422.151Z" fill="#212529"/>
</svg>
