<svg width="58" height="58" viewBox="0 0 58 58" fill="none" xmlns="http://www.w3.org/2000/svg">
<rect x="1" y="1" width="56" height="56" rx="4" stroke="#212529" stroke-width="2"/>
<path fill-rule="evenodd" clip-rule="evenodd" d="M39 29C39 34.5228 34.5228 39 29 39C23.4772 39 19 34.5228 19 29C19 23.4772 23.4772 19 29 19C34.5228 19 39 23.4772 39 29ZM34.2047 27.538C35.0117 27.538 35.6667 28.193 35.6667 29C35.6667 29.5965 35.3041 30.1111 34.8246 30.345C34.848 30.4854 34.8597 30.6257 34.8597 30.7778C34.8597 33.0234 32.2515 34.8362 29.0234 34.8362C25.7953 34.8362 23.1871 33.0234 23.1871 30.7778C23.1871 30.6257 23.1988 30.4737 23.2222 30.3333C22.7076 30.0994 22.3567 29.5965 22.3567 29C22.3567 28.193 23.0117 27.538 23.8187 27.538C24.2047 27.538 24.5673 27.7017 24.8246 27.9473C25.8304 27.2105 27.2222 26.7544 28.7778 26.7076L29.5146 23.2222C29.538 23.152 29.5731 23.0935 29.6316 23.0585C29.6901 23.0234 29.7602 23.0117 29.8304 23.0234L32.2515 23.538C32.4152 23.1871 32.7661 22.9532 33.1754 22.9532C33.7485 22.9532 34.2164 23.421 34.2164 23.9941C34.2164 24.5672 33.7485 25.0351 33.1754 25.0351C32.614 25.0351 32.1579 24.5906 32.1345 24.0409L29.9708 23.5848L29.3041 26.7076C30.8246 26.7661 32.2047 27.2339 33.1988 27.9473C33.4561 27.69 33.807 27.538 34.2047 27.538ZM26.7076 29C26.1345 29 25.6667 29.4678 25.6667 30.0409C25.6667 30.614 26.1345 31.0819 26.7076 31.0819C27.2807 31.0819 27.7485 30.614 27.7485 30.0409C27.7485 29.4678 27.2807 29 26.7076 29ZM29.0117 33.5497C29.4094 33.5497 30.7661 33.5029 31.4795 32.7895C31.5848 32.6842 31.5848 32.5204 31.5029 32.4035C31.3977 32.2982 31.2222 32.2982 31.117 32.4035C30.6608 32.8479 29.7135 33.0117 29.0234 33.0117C28.3333 33.0117 27.3743 32.8479 26.9298 32.4035C26.8246 32.2982 26.6491 32.2982 26.5439 32.4035C26.4386 32.5088 26.4386 32.6842 26.5439 32.7895C27.2456 33.4912 28.614 33.5497 29.0117 33.5497ZM30.2515 30.0409C30.2515 30.614 30.7193 31.0819 31.2924 31.0819C31.8655 31.0819 32.3333 30.614 32.3333 30.0409C32.3333 29.4678 31.8655 29 31.2924 29C30.7193 29 30.2515 29.4678 30.2515 30.0409Z" fill="#212529"/>
</svg>
