<svg width="58" height="58" viewBox="0 0 58 58" fill="none" xmlns="http://www.w3.org/2000/svg">
<rect x="1" y="1" width="56" height="56" rx="4" stroke="#212529" stroke-width="2"/>
<path d="M25.2918 37.1251C32.8371 37.1251 36.9652 30.8724 36.9652 25.4517C36.9652 25.2759 36.9613 25.0962 36.9535 24.9204C37.7566 24.3397 38.4496 23.6203 39 22.7962C38.2521 23.129 37.458 23.3463 36.6449 23.4407C37.5011 22.9275 38.1421 22.1213 38.4492 21.1716C37.6438 21.6489 36.763 21.9856 35.8445 22.1673C35.2257 21.5098 34.4075 21.0744 33.5164 20.9285C32.6253 20.7826 31.711 20.9343 30.9148 21.3602C30.1186 21.7861 29.4848 22.4624 29.1115 23.2845C28.7382 24.1067 28.6462 25.029 28.8496 25.9087C27.2187 25.8269 25.6233 25.4032 24.1667 24.6652C22.71 23.9272 21.4247 22.8913 20.3941 21.6247C19.8703 22.5278 19.71 23.5965 19.9459 24.6135C20.1817 25.6306 20.7959 26.5197 21.6637 27.1001C21.0122 27.0794 20.375 26.904 19.8047 26.5884V26.6392C19.8041 27.5869 20.1317 28.5056 20.7319 29.2391C21.3321 29.9726 22.1678 30.4756 23.0969 30.6626C22.4934 30.8277 21.86 30.8518 21.2457 30.7329C21.5079 31.548 22.018 32.2609 22.7048 32.7721C23.3916 33.2833 24.2209 33.5673 25.077 33.5845C23.6237 34.726 21.8285 35.3452 19.9805 35.3423C19.6527 35.3418 19.3253 35.3217 19 35.2821C20.8774 36.4866 23.0613 37.1263 25.2918 37.1251Z" fill="#212529"/>
</svg>
